<svg height="496pt" viewBox="0 0 496 496" width="496pt" xmlns="http://www.w3.org/2000/svg" xmlns:xlink="http://www.w3.org/1999/xlink"><linearGradient id="a" gradientUnits="userSpaceOnUse" x1="248" x2="248" y1="496" y2="0"><stop offset="0" stop-color="#9f2fff"/><stop offset="1" stop-color="#0bb1d3"/></linearGradient><path d="m120 448h48v16h-48zm-88-48v-320h224v320zm16-16h192v-288h-192zm135.753906-219.496094 35.292969 30.625-96.597656 120.695313-53.546875-55.746094 32.457031-33.78125 17.960937 18.695313zm2.085938 22.992188-65.433594 81.734375-19.054688-19.839844-10.261718 10.6875 30.253906 31.507813 75.601562-94.449219zm310.160156-27.496094v160c0 13.230469-10.769531 24-24 24h-184v112c0 22.054688-17.945312 40-40 40h-208c-22.054688 0-40-17.945312-40-40v-416c0-22.054688 17.945312-40 40-40h208c22.054688 0 40 17.945312 40 40v96h184c13.230469 0 24 10.769531 24 24zm-208-8v16h192v-8c0-4.40625-3.585938-8-8-8zm-272-112v8h256v-8c0-13.230469-10.769531-24-24-24h-208c-13.230469 0-24 10.769531-24 24zm0 24v352h256v-352zm256 392v-24h-256v24c0 13.230469 10.769531 24 24 24h208c13.230469 0 24-10.769531 24-24zm208-136v-104h-16v-16h16v-16h-192v144h184c4.414062 0 8-3.59375 8-8zm-16-40c0 17.648438-14.351562 32-32 32-5.640625 0-11.152344-1.519531-16-4.359375-4.847656 2.839844-10.359375 4.359375-16 4.359375-17.648438 0-32-14.351562-32-32s14.351562-32 32-32c5.640625 0 11.152344 1.519531 16 4.359375 4.847656-2.839844 10.359375-4.359375 16-4.359375 17.648438 0 32 14.351562 32 32zm-16 0c0-8.824219-7.175781-16-16-16-3.878906 0-7.65625 1.480469-10.648438 4.167969l-5.351562 4.824219-5.351562-4.824219c-2.992188-2.6875-6.769532-4.167969-10.648438-4.167969-8.824219 0-16 7.175781-16 16s7.175781 16 16 16c3.878906 0 7.65625-1.480469 10.648438-4.167969l5.351562-4.824219 5.351562 4.824219c2.992188 2.6875 6.769532 4.167969 10.648438 4.167969 8.824219 0 16-7.175781 16-16zm0-80h-16v16h16zm-32 0h-16v16h16zm-32 0h-16v16h16zm-48 16h16v-16h-16zm-32 0h16v-16h-16zm0 0" fill="url(#a)"/></svg>