<svg xmlns="http://www.w3.org/2000/svg" viewBox="0 0 150.07 103.82"><g data-name="Layer 2"><g data-name="Capa 1"><path fill='white' d="M9.89 21.7a4.63 4.63 0 0 0 2.74-.84 2.86 2.86 0 0 0 1.2-2.52 3 3 0 0 0-1.29-2.59 12.46 12.46 0 0 0-3.66-1.57A24.52 24.52 0 0 1 5.44 13a9.06 9.06 0 0 1-2-1.3 6.16 6.16 0 0 1-1.92-5A6.5 6.5 0 0 1 3.46 2a7.23 7.23 0 0 1 5.37-2 13.18 13.18 0 0 1 3.43.48 12.68 12.68 0 0 0 2.22.52c.29 0 .54-.21.77-.62h.34l.22 6.26h-.5a19.35 19.35 0 0 0-3.11-4.36A4.92 4.92 0 0 0 8.66.65a4.54 4.54 0 0 0-3 .88 2.94 2.94 0 0 0-1 2.36 2.51 2.51 0 0 0 1.25 2.26A11.11 11.11 0 0 0 9 7.44c1.22.33 2 .56 2.4.68l1.43.51a7.18 7.18 0 0 1 1.39.69 9 9 0 0 1 1.15.89 4.45 4.45 0 0 1 .95 1.2 7.17 7.17 0 0 1 .83 3.53 7.13 7.13 0 0 1-2.09 5.38 7.57 7.57 0 0 1-5.5 2 20.49 20.49 0 0 1-4.05-.46C4 21.58 3.14 21.42 3 21.42s-.57.31-.84.93h-.45L1.4 15h.52a17.08 17.08 0 0 0 3.49 4.72 6.46 6.46 0 0 0 4.48 1.98zM20.27 17.61V7.84h-1.7v-.55h1.7v-4L26 1.86v5.43h4v.55h-4v10.45a5.94 5.94 0 0 0 .29 2.14 1.21 1.21 0 0 0 1.23.68 2 2 0 0 0 1.63-.93 5.4 5.4 0 0 0 .91-2.54l.53.06a6 6 0 0 1-1.37 3.4 4.74 4.74 0 0 1-3.69 1.25 6.48 6.48 0 0 1-3.93-1c-.87-.7-1.33-1.94-1.33-3.74zM38.38 14.76h.9v-2.39A15.18 15.18 0 0 0 39 8.42a1.26 1.26 0 0 0-1.25-1 1.84 1.84 0 0 0-1 .29.93.93 0 0 0-.45.81 3.21 3.21 0 0 0 .18 1h.78a4.47 4.47 0 0 1 .25 1.56 2 2 0 0 1-.78 1.58 2.85 2.85 0 0 1-2 .67c-1.78 0-2.67-.86-2.67-2.57Q32.05 7 38.53 7c2.46 0 4.16.41 5.1 1.25S45 10.6 45 12.83v6.3c0 1.07.3 1.61.9 1.61s1.12-1.07 1.24-3.19h.47a6.29 6.29 0 0 1-1 3.75 3.74 3.74 0 0 1-2.94 1q-3.72 0-4.28-2.29a3.33 3.33 0 0 1-1.21 1.73 4.06 4.06 0 0 1-2.35.56q-4.59 0-4.59-3.75a3 3 0 0 1 1.75-3 13.29 13.29 0 0 1 5.39-.79zm-1.07 5.89a.63.63 0 0 0 .65.46c.32 0 .62-.26.9-.79a4.72 4.72 0 0 0 .42-2.18v-2.89h-.22q-1.92 0-1.92 2.82v.5a7.46 7.46 0 0 0 .17 2.08zM58.31 8.15a2.43 2.43 0 0 0-2 1.49 6.87 6.87 0 0 0-.87 3.53v8.31h2.2V22H48v-.56h1.7V7.84H48v-.55h7.47v3A4.17 4.17 0 0 1 59.58 7a3.4 3.4 0 0 1 2.42.8 3 3 0 0 1 .92 2.32 3.52 3.52 0 0 1-.68 2.31 2.61 2.61 0 0 1-2.1.81 2.36 2.36 0 0 1-2.14-.93 2.83 2.83 0 0 1-.17-2.58H59c.48-1.05.26-1.58-.69-1.58zM64.85 17.61V7.84h-1.7v-.55h1.7v-4l5.77-1.43v5.43h4v.55h-4v10.45a5.72 5.72 0 0 0 .29 2.14 1.21 1.21 0 0 0 1.23.68 2 2 0 0 0 1.62-.93 5.4 5.4 0 0 0 .92-2.54l.53.06a6 6 0 0 1-1.37 3.4 4.74 4.74 0 0 1-3.69 1.25 6.46 6.46 0 0 1-3.93-1c-.91-.7-1.37-1.94-1.37-3.74zM93.5 22h-7.07l-.34-2.26a4 4 0 0 1-1.48 1.9 5.08 5.08 0 0 1-2.89.67c-3.21 0-4.81-1.72-4.81-5.18V7.84h-1.74v-.55h7.51v10.63a7.15 7.15 0 0 0 .26 2.45A1 1 0 0 0 84 21a1.72 1.72 0 0 0 1.41-1 4.86 4.86 0 0 0 .59-2.67V7.84h-1.4v-.55h7.19v14.19h1.71zM101.52 7.29v2.44A4.33 4.33 0 0 1 105.8 7a4.91 4.91 0 0 1 4.14 1.92q1.47 1.92 1.47 5.83t-1.59 5.76a6 6 0 0 1-4.82 1.84 5.13 5.13 0 0 1-2.2-.35 2.9 2.9 0 0 1-1.21-1.15v8h4v.56H94.12v-.56h1.7v-21h-1.64v-.56zm3.6 2.12c-.21-.73-.61-1.1-1.21-1.1a2 2 0 0 0-1.61 1.16 5.89 5.89 0 0 0-.71 3.12v5.67a4.52 4.52 0 0 0 .52 2.26 1.68 1.68 0 0 0 1.55.93c.69 0 1.15-.45 1.4-1.36a20.7 20.7 0 0 0 .37-4.78V13.7a18.78 18.78 0 0 0-.31-4.29zM13.21 58.65L10.94 52H4.81l-2.39 6.65h2.32v.59H0v-.59h1.46l7.9-21.3h2.54l7.82 21.3h1.42v.59H11v-.59zM8 43.15l-2.92 8.12h5.61zM31.25 59.24l-.34-2.17c-.71 1.66-2.13 2.48-4.28 2.48a4.91 4.91 0 0 1-4.14-1.92A9.36 9.36 0 0 1 21 51.89q0-7.71 6.14-7.71c1.81 0 3 .5 3.59 1.51v-9.14h-1.87V36h7.75v22.68h1.52v.56zm-3.91-2.09a1.3 1.3 0 0 0 1.26 1.07 2 2 0 0 0 1.58-.81 3.67 3.67 0 0 0 .66-2.41v-6.73a4.56 4.56 0 0 0-.52-2.27 1.68 1.68 0 0 0-1.55-.93c-.68 0-1.15.46-1.4 1.37a20.65 20.65 0 0 0-.37 4.77v1.61a17.25 17.25 0 0 0 .34 4.33zM38 45v-.55h9.26V45h-2L49 55.34 52.39 45h-2.08v-.55h4.19V45h-1.37l-4.58 14.2H45L39.28 45zM61.32 52h.9v-2.43a15.18 15.18 0 0 0-.33-4 1.26 1.26 0 0 0-1.25-1 1.84 1.84 0 0 0-1 .29.93.93 0 0 0-.45.81 3.21 3.21 0 0 0 .18 1h.78a4.25 4.25 0 0 1 .25 1.56 2 2 0 0 1-.78 1.58 2.85 2.85 0 0 1-2 .67C55.88 50.56 55 49.7 55 48q0-3.81 6.48-3.81c2.46 0 4.16.41 5.1 1.25S68 47.8 68 50v6.3c0 1.07.3 1.61.9 1.61s1.12-1.06 1.24-3.19h.47a6.29 6.29 0 0 1-1 3.75 3.74 3.74 0 0 1-2.94 1q-3.72 0-4.28-2.29A3.33 3.33 0 0 1 61.13 59a4.06 4.06 0 0 1-2.35.56q-4.59 0-4.59-3.75a3 3 0 0 1 1.75-3 13.29 13.29 0 0 1 5.38-.81zm-1.07 5.89a.63.63 0 0 0 .65.46c.32 0 .62-.26.9-.79a4.69 4.69 0 0 0 .42-2.18v-2.93H62q-1.92 0-1.92 2.82v.5a7.46 7.46 0 0 0 .17 2.08zM71 44.49h7.47v2.85A5.2 5.2 0 0 1 80 45a4.68 4.68 0 0 1 3.1-.86q4.8 0 4.8 5.17v9.33h1.74v.56h-8.82v-.56h1.27V48.61a7.26 7.26 0 0 0-.25-2.4.91.91 0 0 0-.9-.55c-.66 0-1.24.44-1.75 1.31a6.11 6.11 0 0 0-.76 3.16v8.55h1.33v.56H71v-.56h1.7V45H71zM98.67 44.73a2 2 0 0 0-2 1.49 14.74 14.74 0 0 0-.59 4.93v1.61a10.37 10.37 0 0 0 .68 4.4 2.57 2.57 0 0 0 2.51 1.34 3.72 3.72 0 0 0 2.92-1.24 6 6 0 0 0 1.39-2.82l.56.06a6.23 6.23 0 0 1-2.14 3.84 7.2 7.2 0 0 1-4.43 1.21 7.4 7.4 0 0 1-5.52-1.94 7.72 7.72 0 0 1-1.92-5.67 7.45 7.45 0 0 1 2.18-5.75 8.67 8.67 0 0 1 6.09-2 7.09 7.09 0 0 1 4.22 1.06 3.24 3.24 0 0 1 1.46 2.69 3.32 3.32 0 0 1-.7 2.35 2.49 2.49 0 0 1-1.92.75 2.91 2.91 0 0 1-2-.65 2.42 2.42 0 0 1-.74-1.93 4.24 4.24 0 0 1 .15-1.11h1a3.35 3.35 0 0 0 .22-1.12 1.32 1.32 0 0 0-1.42-1.5zM104.84 44.49h7.6v14.19h1.73v.56H105v-.56h1.7V45h-1.83zm4.68-2.14a2.9 2.9 0 0 1-2.34-.84 3.17 3.17 0 0 1-.7-2.08 2.88 2.88 0 0 1 .76-2 3 3 0 0 1 2.31-.81 3.39 3.39 0 0 1 2.36.73 2.65 2.65 0 0 1 .81 2.08 3 3 0 0 1-.78 2.15 3.21 3.21 0 0 1-2.42.77zM114.85 44.49h7.47v2.85a5.28 5.28 0 0 1 1.52-2.3 4.72 4.72 0 0 1 3.1-.86q4.81 0 4.81 5.17v9.33h1.73v.56h-8.77v-.56H126V48.61a7 7 0 0 0-.25-2.4.88.88 0 0 0-.89-.55c-.67 0-1.25.44-1.76 1.31a6.21 6.21 0 0 0-.76 3.16v8.55h1.34v.56h-8.81v-.56h1.71V45h-1.71zM146.32 42.87l.87-.52q.18-1-.75-1c-.89 0-1.33.68-1.33 2a9 9 0 0 0 .22 1.86 4.72 4.72 0 0 1 2.35 4.05 4.65 4.65 0 0 1-1.7 3.83 7.26 7.26 0 0 1-4.62 1.36 13 13 0 0 1-2.51-.25c-.91.58-1.37 1-1.37 1.3s.67.44 2 .44h3.16q7 0 7 5a5.11 5.11 0 0 1-2.13 4.32q-2.11 1.6-6.62 1.6c-5.1 0-7.65-1.1-7.65-3.32 0-1.19.79-2 2.38-2.48l1.86.84a6.64 6.64 0 0 0-.24 1.71q0 2.66 4 2.66a6.47 6.47 0 0 0 3.72-.9 2.65 2.65 0 0 0 1.31-2.23 1.88 1.88 0 0 0-.79-1.78 7.28 7.28 0 0 0-3.15-.45h-3a5.94 5.94 0 0 1-3.59-.84 2.5 2.5 0 0 1-1.09-2.06 2.86 2.86 0 0 1 .78-2 14.16 14.16 0 0 1 2.76-2 4.48 4.48 0 0 1-3.6-4.71 4.7 4.7 0 0 1 1.67-3.75 7.6 7.6 0 0 1 5-1.42 7.08 7.08 0 0 1 3.44.77 6.71 6.71 0 0 1-.19-1.52 3.09 3.09 0 0 1 .93-2.51 3.14 3.14 0 0 1 2.08-.77 2.72 2.72 0 0 1 1.84.6 2.07 2.07 0 0 1 .7 1.66 2 2 0 0 1-.56 1.56 1.93 1.93 0 0 1-1.35.52 2 2 0 0 1-1.3-.42 1.55 1.55 0 0 1-.53-1.15zm-6.57 5.8v1.67a7.69 7.69 0 0 0 .35 2.83 1.16 1.16 0 0 0 1.09.74 1.09 1.09 0 0 0 1.05-.73 8.6 8.6 0 0 0 .33-3v-1.51a10.48 10.48 0 0 0-.31-3.18 1.09 1.09 0 0 0-1-.76 1.19 1.19 0 0 0-1.1.79 8.64 8.64 0 0 0-.41 3.15zM9.89 96.1a4.63 4.63 0 0 0 2.74-.84 2.86 2.86 0 0 0 1.2-2.52 3 3 0 0 0-1.29-2.59 12.46 12.46 0 0 0-3.66-1.57 24.52 24.52 0 0 1-3.44-1.16 9.06 9.06 0 0 1-2-1.3 6.16 6.16 0 0 1-1.92-5 6.5 6.5 0 0 1 2-4.75 7.23 7.23 0 0 1 5.37-2 13.18 13.18 0 0 1 3.43.48 12.68 12.68 0 0 0 2.22.48c.29 0 .54-.21.77-.62h.34l.16 6.29h-.5a19.35 19.35 0 0 0-3.11-4.32 4.92 4.92 0 0 0-3.54-1.63 4.54 4.54 0 0 0-3 .88 2.94 2.94 0 0 0-1 2.36 2.51 2.51 0 0 0 1.26 2.26A11.11 11.11 0 0 0 9 81.84c1.22.33 2 .56 2.4.68l1.43.51a7.18 7.18 0 0 1 1.39.69 9 9 0 0 1 1.15.89 4.45 4.45 0 0 1 .95 1.2 8 8 0 0 1-1.26 8.91 7.57 7.57 0 0 1-5.5 2 20.49 20.49 0 0 1-4.05-.46C4 96 3.14 95.82 3 95.82s-.57.31-.84.93h-.45l-.31-7.38h.52a16.88 16.88 0 0 0 3.49 4.71 6.43 6.43 0 0 0 4.48 2.02zM20.27 92v-9.76h-1.7v-.55h1.7v-4L26 76.26v5.43h4v.55h-4v10.45a5.94 5.94 0 0 0 .29 2.14 1.21 1.21 0 0 0 1.23.68 2 2 0 0 0 1.63-.93A5.4 5.4 0 0 0 30.1 92l.53.06a6 6 0 0 1-1.37 3.4 4.74 4.74 0 0 1-3.69 1.25 6.48 6.48 0 0 1-3.93-1c-.91-.66-1.37-1.9-1.37-3.71zM38.38 89.16h.9v-2.39a15.18 15.18 0 0 0-.33-4 1.26 1.26 0 0 0-1.25-1 1.84 1.84 0 0 0-1 .29.93.93 0 0 0-.45.81 3.21 3.21 0 0 0 .18 1h.78a4.47 4.47 0 0 1 .25 1.56 2 2 0 0 1-.78 1.58 2.85 2.85 0 0 1-2 .67c-1.78 0-2.67-.86-2.67-2.57q0-3.81 6.48-3.81c2.46 0 4.16.41 5.1 1.25S45 85 45 87.23v6.3c0 1.07.3 1.61.9 1.61s1.12-1.07 1.24-3.19h.47a6.29 6.29 0 0 1-1 3.75 3.74 3.74 0 0 1-2.94 1q-3.72 0-4.28-2.29a3.33 3.33 0 0 1-1.21 1.73 4.14 4.14 0 0 1-2.35.56q-4.59 0-4.59-3.75A3 3 0 0 1 33 90a13.29 13.29 0 0 1 5.38-.84zm-1.07 5.89a.63.63 0 0 0 .65.46c.32 0 .62-.26.9-.79a4.72 4.72 0 0 0 .42-2.18v-2.89h-.22q-1.92 0-1.92 2.82V93a7.46 7.46 0 0 0 .17 2.05zM58.31 82.55a2.43 2.43 0 0 0-2 1.49 6.87 6.87 0 0 0-.87 3.53v8.31h2.2v.56H48v-.56h1.7V82.24H48v-.55h7.47v3a4.17 4.17 0 0 1 4.15-3.28 3.4 3.4 0 0 1 2.38.79 3 3 0 0 1 .92 2.32 3.52 3.52 0 0 1-.68 2.31 2.61 2.61 0 0 1-2.1.81 2.36 2.36 0 0 1-2.14-.93 2.83 2.83 0 0 1-.17-2.58H59c.48-1.05.26-1.58-.69-1.58zM64.85 92v-9.76h-1.7v-.55h1.7v-4l5.77-1.43v5.43h4v.55h-4v10.45a5.72 5.72 0 0 0 .29 2.14 1.21 1.21 0 0 0 1.23.68 2 2 0 0 0 1.62-.93 5.4 5.4 0 0 0 .92-2.58l.53.06a6 6 0 0 1-1.37 3.4 4.74 4.74 0 0 1-3.69 1.25 6.46 6.46 0 0 1-3.93-1c-.91-.66-1.37-1.9-1.37-3.71zM93.5 96.44h-7.07l-.34-2.26a4 4 0 0 1-1.48 1.9 5.08 5.08 0 0 1-2.89.67c-3.21 0-4.81-1.72-4.81-5.18v-9.33h-1.74v-.55h7.51v10.63a7.15 7.15 0 0 0 .26 2.45 1 1 0 0 0 1 .59 1.72 1.72 0 0 0 1.41-1 4.86 4.86 0 0 0 .65-2.63v-9.49h-1.4v-.55h7.19v14.19h1.71zM101.52 81.69v2.44a4.31 4.31 0 0 1 4.28-2.75 4.91 4.91 0 0 1 4.14 1.92q1.47 1.92 1.47 5.83t-1.59 5.76a6 6 0 0 1-4.82 1.86 5.13 5.13 0 0 1-2.23-.37 2.9 2.9 0 0 1-1.21-1.15v8h4v.56H94.12v-.56h1.7v-21h-1.64v-.55zm3.6 2.12c-.21-.73-.61-1.1-1.21-1.1a2 2 0 0 0-1.61 1.16 5.89 5.89 0 0 0-.71 3.12v5.67a4.52 4.52 0 0 0 .52 2.26 1.68 1.68 0 0 0 1.55.93c.69 0 1.15-.45 1.4-1.36a20.7 20.7 0 0 0 .37-4.78V88.1a18.78 18.78 0 0 0-.31-4.29zM113.06 96.75V91.2h.37a7.42 7.42 0 0 0 2.17 3.8 5.26 5.26 0 0 0 3.4 1.07c2.11 0 3.16-.67 3.16-2a1.42 1.42 0 0 0-.77-1.3 10.69 10.69 0 0 0-3.1-1 12.05 12.05 0 0 1-3.54-1.49 3.9 3.9 0 0 1-1.7-3.53 5.12 5.12 0 0 1 1.48-3.86 5.49 5.49 0 0 1 4-1.44 7.62 7.62 0 0 1 3.13.71 2.74 2.74 0 0 0 .9.25.73.73 0 0 0 .53-.22 3.86 3.86 0 0 0 .53-.81h.34v4.75h-.37q-1.59-4-4.9-4a3.71 3.71 0 0 0-2.17.51 1.52 1.52 0 0 0-.72 1.28 1.13 1.13 0 0 0 .22.73c.15.18.26.31.34.39a1.53 1.53 0 0 0 .41.26 4.46 4.46 0 0 0 .46.22c.12 0 .31.12.57.2a5 5 0 0 0 .58.16 24.15 24.15 0 0 1 3 .91 10.67 10.67 0 0 1 1.76 1 4.27 4.27 0 0 1 1.71 3.79 5 5 0 0 1-1.55 4 6.26 6.26 0 0 1-4.25 1.35 8.22 8.22 0 0 1-3.72-.9 1.24 1.24 0 0 0-.59-.25c-.45 0-.9.39-1.33 1.15z"/></g></g></svg>