<svg height="496pt" viewBox="0 0 496 496" width="496pt" xmlns="http://www.w3.org/2000/svg" xmlns:xlink="http://www.w3.org/1999/xlink"><linearGradient id="a" gradientUnits="userSpaceOnUse" x1="248" x2="248" y1="496" y2="0"><stop offset="0" stop-color="#9f2fff"/><stop offset="1" stop-color="#0bb1d3"/></linearGradient><path d="m472 0h-192c-13.230469 0-24 10.769531-24 24v200h-240c-8.824219 0-16 7.175781-16 16v16c0 8.824219 7.175781 16 16 16v160h92.457031l-24 64h57.085938l24-64h20.914062l24 64h57.085938l-24-64h76.457031v-96h152c13.230469 0 24-10.769531 24-24v-288c0-13.230469-10.769531-24-24-24zm-456 240h304v8h.007812l.007813 8h-304.015625zm304-16h-16v-16h16zm-189.542969 256h-22.914062l18-48h22.914062zm114 0h-22.914062l-18-48h22.914062zm-212.457031-64v-144h272v144zm448-104c0 4.40625-3.59375 8-8 8h-152v-48c8.824219 0 16-7.175781 16-16v-64h-48v32h-16v-200c0-4.40625 3.59375-8 8-8h192c4.40625 0 8 3.59375 8 8zm-64-8h48v-112h-48zm16-96h16v80h-16zm-80 96h48v-48h-48zm16-32h16v16h-16zm-16-32h48v-48h-48zm16-32h16v16h-16zm-16-32h48v-48h-48zm16-32h16v16h-16zm48 32h48v-48h-48zm16-32h16v16h-16zm-144 32h48v-48h-48zm16-32h16v16h-16zm-16-32h176v-80h-176zm16-64h144v48h-144zm-244.902344 91.921875c6.4375 5.679687 10.566406 12.644531 12.132813 20.078125h-15.230469v16h16.808594c3.71875 18.230469 19.871094 32 39.191406 32s35.472656-13.769531 39.191406-32h16.808594v-16h-15.359375c1.335937-7.632812 4.976563-14.375 10.574219-19.015625 18.296875-15.128906 28.785156-37.359375 28.785156-60.984375 0-21.824219-8.632812-42.214844-24.296875-57.414062-15.664063-15.203126-36.414063-23.128907-58.167969-22.5468755-42.894531 1.2890625-77.6875 37.2890625-77.535156 80.2499995.078125 22.789063 9.960938 44.527344 27.097656 59.632813zm52.902344 52.078125c-10.414062 0-19.214844-6.710938-22.527344-16h45.046875c-3.304687 9.289062-12.105469 16-22.519531 16zm0-96c-8.824219 0-16-7.175781-16-16s7.175781-16 16-16 16 7.175781 16 16-7.175781 16-16 16zm-1.976562-79.96875c.664062-.023438 1.328124-.03125 1.992187-.03125 16.746094 0 32.496094 6.375 44.550781 18.0625 12.53125 12.160156 19.433594 28.480469 19.433594 45.9375 0 18.839844-8.375 36.574219-22.984375 48.664062-9.253906 7.65625-15.09375 18.847657-16.601563 31.335938h-16.414062v-49.136719c13.761719-3.574219 24-16 24-30.863281 0-17.648438-14.351562-32-32-32s-32 14.351562-32 32c0 14.863281 10.238281 27.289062 24 30.863281v49.136719h-16.503906c-1.664063-12.046875-7.816406-23.257812-17.816406-32.078125-13.710938-12.089844-21.617188-29.464844-21.679688-47.691406-.121094-34.375 27.703125-63.167969 62.023438-64.199219zm-62.023438 383.96875h48v-80h-48zm16-64h16v48h-16zm48 64h48v-64h-48zm16-48h16v32h-16zm48 48h48v-112h-48zm16-96h16v80h-16zm48 96h48v-80h-48zm16-64h16v48h-16zm0 0" fill="url(#a)"/></svg>