<?xml version="1.0" encoding="utf-8"?>
<!-- Generator: Adobe Illustrator 22.1.0, SVG Export Plug-In . SVG Version: 6.00 Build 0)  -->
<svg version="1.1" id="Layer_1" xmlns="http://www.w3.org/2000/svg" xmlns:xlink="http://www.w3.org/1999/xlink" x="0px" y="0px"
	 viewBox="0 0 150.1 103.8" style="enable-background:new 0 0 150.1 103.8;" xml:space="preserve">
<style type="text/css">
	.st0{fill:#FF0000;}
	.st1{fill:#FF7F00;}
	.st2{fill:#FFFF00;}
	.st3{fill:#00FF00;}
	.st4{fill:#0000FF;}
	.st5{fill:#4B0082;}
	.st6{fill:#9400D3;}
	.st7{fill:#FFFFFF;}
</style>
<title>Asset 2</title>
<g id="Layer_2_1_">
	<g id="Capa_1">
		<path class="st0" d="M9.9,21.7c1,0,1.9-0.3,2.7-0.8c0.8-0.6,1.3-1.5,1.2-2.5c0-1-0.4-2-1.3-2.6c-1.1-0.7-2.4-1.2-3.7-1.6
			c-1.2-0.3-2.3-0.7-3.4-1.2c-0.7-0.3-1.4-0.8-2-1.3c-1.4-1.3-2.1-3.1-1.9-5c0-1.8,0.7-3.5,1.9-4.7c1.4-1.4,3.4-2.1,5.4-2
			c1.2,0,2.3,0.2,3.4,0.5C13,0.7,13.7,0.9,14.5,1c0.3,0,0.5-0.2,0.8-0.6h0.3l0.2,6.3h-0.5c-0.8-1.6-1.9-3.1-3.1-4.4
			c-0.9-1-2.2-1.6-3.5-1.6c-1.1-0.1-2.1,0.2-3,0.9C5,2.1,4.6,3,4.7,3.9c0,0.9,0.4,1.8,1.3,2.3c1,0.6,2,1,3.1,1.3
			c1.2,0.3,2,0.6,2.4,0.7l1.4,0.5c0.5,0.2,1,0.4,1.4,0.7c0.4,0.3,0.8,0.6,1.1,0.9c0.4,0.3,0.7,0.7,0.9,1.2c0.6,1.1,0.9,2.3,0.8,3.5
			c0.1,2-0.7,4-2.1,5.4c-1.5,1.4-3.5,2.1-5.5,2c-1.4,0-2.7-0.2-4.1-0.5C4,21.6,3.1,21.4,3,21.4s-0.6,0.3-0.8,0.9H1.7L1.4,15h0.5
			c0.9,1.8,2.1,3.4,3.5,4.7C6.6,20.9,8.2,21.7,9.9,21.7z"/>
		<path class="st1" d="M20.3,17.6V7.8h-1.7V7.3h1.7v-4L26,1.9v5.4h4v0.6h-4v10.5c0,0.7,0.1,1.5,0.3,2.1c0.2,0.5,0.7,0.7,1.2,0.7
			c0.7,0,1.3-0.4,1.6-0.9c0.5-0.8,0.8-1.6,0.9-2.5l0.5,0.1c-0.1,1.2-0.6,2.4-1.4,3.4c-1,0.9-2.3,1.4-3.7,1.3c-1.4,0.1-2.8-0.3-3.9-1
			C20.7,20.6,20.3,19.4,20.3,17.6z"/>
		<path class="st2" d="M38.4,14.8h0.9v-2.4c0.1-1.3,0-2.7-0.3-3.9c-0.1-0.6-0.6-1-1.3-1c-0.4,0-0.7,0.1-1,0.3
			c-0.3,0.2-0.5,0.5-0.5,0.8c0,0.3,0.1,0.7,0.2,1h0.8c0.2,0.5,0.3,1,0.3,1.6c0,0.6-0.3,1.2-0.8,1.6c-0.6,0.5-1.3,0.7-2,0.7
			c-1.8,0-2.7-0.9-2.7-2.6c0-2.5,2.2-3.8,6.5-3.8c2.5,0,4.2,0.4,5.1,1.3s1.4,2.4,1.4,4.6v6.3c0,1.1,0.3,1.6,0.9,1.6s1.1-1.1,1.2-3.2
			h0.5c0.1,1.3-0.3,2.6-1,3.8c-0.8,0.7-1.9,1.1-2.9,1c-2.5,0-3.9-0.8-4.3-2.3c-0.2,0.7-0.6,1.3-1.2,1.7c-0.7,0.4-1.5,0.6-2.3,0.6
			c-3.1,0-4.6-1.3-4.6-3.8c-0.1-1.3,0.6-2.5,1.8-3C34.7,14.9,36.5,14.6,38.4,14.8z M37.3,20.6c0.1,0.3,0.4,0.5,0.7,0.5
			c0.3,0,0.6-0.3,0.9-0.8c0.3-0.7,0.5-1.4,0.4-2.2v-2.9h-0.2c-1.3,0-1.9,0.9-1.9,2.8v0.5C37.1,19.3,37.2,20,37.3,20.6z"/>
		<path class="st3" d="M58.3,8.1c-0.9,0.1-1.7,0.7-2,1.5c-0.6,1.1-0.9,2.3-0.9,3.5v8.3h2.2V22H48v-0.6h1.7V7.8H48V7.3h7.5v3
			C55.9,8.4,57.6,7,59.6,7c0.9-0.1,1.7,0.2,2.4,0.8c0.6,0.6,1,1.4,0.9,2.3c0.1,0.8-0.2,1.6-0.7,2.3c-0.5,0.6-1.3,0.9-2.1,0.8
			c-0.8,0.1-1.6-0.3-2.1-0.9c-0.5-0.8-0.5-1.7-0.2-2.6H59C59.5,8.7,59.3,8.1,58.3,8.1z"/>
		<path class="st4" d="M64.8,17.6V7.8h-1.7V7.3h1.7v-4l5.8-1.4v5.4h4v0.6h-4v10.5c0,0.7,0.1,1.5,0.3,2.1c0.2,0.5,0.7,0.7,1.2,0.7
			c0.7,0,1.3-0.4,1.6-0.9c0.5-0.8,0.8-1.6,0.9-2.5l0.5,0.1c-0.1,1.2-0.6,2.4-1.4,3.4c-1,0.9-2.3,1.4-3.7,1.3c-1.4,0.1-2.8-0.3-3.9-1
			C65.3,20.6,64.8,19.4,64.8,17.6z"/>
		<path class="st5" d="M93.5,22h-7.1l-0.3-2.3c-0.3,0.8-0.8,1.4-1.5,1.9c-0.9,0.5-1.9,0.7-2.9,0.7c-3.2,0-4.8-1.7-4.8-5.2V7.8h-1.7
			V7.3h7.5v10.6c-0.1,0.8,0,1.7,0.3,2.5c0.2,0.4,0.6,0.7,1.1,0.6c0.6-0.1,1.2-0.4,1.4-1c0.4-0.8,0.7-1.7,0.6-2.7V7.8h-1.4V7.3h7.2
			v14.2h1.7V22z"/>
		<path class="st6" d="M101.5,7.3v2.4c0.7-1.7,2.4-2.8,4.3-2.7c1.6-0.1,3.2,0.6,4.1,1.9c1,1.3,1.5,3.2,1.5,5.8s-0.5,4.5-1.6,5.8
			c-1.2,1.3-3,2-4.8,1.8c-0.8,0-1.5-0.1-2.2-0.4c-0.5-0.3-0.9-0.7-1.2-1.1v8h4v0.6H94.1v-0.6h1.7v-21h-1.6V7.3H101.5z M105.1,9.4
			c-0.2-0.7-0.6-1.1-1.2-1.1c-0.7,0.1-1.3,0.5-1.6,1.2c-0.5,1-0.8,2-0.7,3.1v5.7c0,0.8,0.2,1.6,0.5,2.3c0.3,0.6,0.9,0.9,1.6,0.9
			c0.7,0,1.2-0.5,1.4-1.4c0.3-1.6,0.4-3.2,0.4-4.8v-1.6C105.5,12.3,105.4,10.8,105.1,9.4z"/>
		<path class="st7" d="M13.2,58.7L10.9,52H4.8l-2.4,6.7h2.3v0.6H0v-0.6h1.5l7.9-21.3h2.5l7.8,21.3h1.4v0.6H11v-0.6H13.2z M8,43.2
			l-2.9,8.1h5.6L8,43.2z"/>
		<path class="st7" d="M31.3,59.2l-0.3-2.2c-0.7,1.7-2.1,2.5-4.3,2.5c-1.6,0.1-3.2-0.6-4.1-1.9c-1.1-1.7-1.6-3.7-1.5-5.7
			c0-5.1,2-7.7,6.1-7.7c1.8,0,3,0.5,3.6,1.5v-9.1h-1.9V36h7.8v22.7h1.5v0.6H31.3z M27.3,57.2c0.1,0.6,0.6,1.1,1.3,1.1
			c0.6,0,1.2-0.3,1.6-0.8c0.5-0.7,0.7-1.6,0.7-2.4v-6.7c0-0.8-0.2-1.6-0.5-2.3c-0.3-0.6-0.9-0.9-1.5-0.9c-0.7,0-1.1,0.5-1.4,1.4
			c-0.3,1.6-0.4,3.2-0.4,4.8v1.6C26.9,54.3,27,55.7,27.3,57.2z"/>
		<path class="st7" d="M38,45v-0.5h9.3V45h-2L49,55.3L52.4,45h-2.1v-0.5h4.2V45h-1.4l-4.6,14.2H45L39.3,45H38z"/>
		<path class="st7" d="M61.3,52h0.9v-2.4c0.1-1.3,0-2.7-0.3-4c-0.1-0.6-0.6-1-1.3-1c-0.4,0-0.7,0.1-1,0.3c-0.3,0.2-0.5,0.5-0.5,0.8
			c0,0.3,0.1,0.7,0.2,1h0.8c0.2,0.5,0.3,1,0.3,1.6c0,0.6-0.3,1.2-0.8,1.6c-0.6,0.5-1.3,0.7-2,0.7C55.9,50.6,55,49.7,55,48
			c0-2.5,2.2-3.8,6.5-3.8c2.5,0,4.2,0.4,5.1,1.3S68,47.8,68,50v6.3c0,1.1,0.3,1.6,0.9,1.6s1.1-1.1,1.2-3.2h0.5
			c0.1,1.3-0.3,2.6-1,3.8c-0.8,0.7-1.9,1.1-2.9,1c-2.5,0-3.9-0.8-4.3-2.3c-0.2,0.7-0.6,1.4-1.3,1.8c-0.7,0.4-1.5,0.6-2.3,0.6
			c-3.1,0-4.6-1.3-4.6-3.8c-0.1-1.3,0.6-2.5,1.8-3C57.7,52.2,59.5,51.9,61.3,52z M60.3,57.9c0.1,0.3,0.4,0.5,0.7,0.5
			c0.3,0,0.6-0.3,0.9-0.8c0.3-0.7,0.5-1.4,0.4-2.2v-2.9H62c-1.3,0-1.9,0.9-1.9,2.8v0.5C60,56.5,60.1,57.2,60.3,57.9L60.3,57.9z"/>
		<path class="st7" d="M71,44.5h7.5v2.8c0.3-0.9,0.8-1.7,1.5-2.3c0.9-0.6,2-0.9,3.1-0.9c3.2,0,4.8,1.7,4.8,5.2v9.3h1.7v0.6h-8.8
			v-0.6h1.3v-10c0.1-0.8,0-1.6-0.3-2.4c-0.2-0.4-0.5-0.6-0.9-0.5c-0.7,0-1.2,0.4-1.8,1.3c-0.5,1-0.8,2.1-0.8,3.2v8.5h1.3v0.6H71
			v-0.6h1.7V45H71V44.5z"/>
		<path class="st7" d="M98.7,44.7c-0.9,0-1.8,0.6-2,1.5c-0.5,1.6-0.7,3.3-0.6,4.9v1.6c-0.1,1.5,0.1,3,0.7,4.4
			c0.5,0.9,1.5,1.4,2.5,1.3c1.1,0,2.2-0.4,2.9-1.2c0.7-0.8,1.2-1.8,1.4-2.8l0.6,0.1c-0.2,1.5-1,2.9-2.1,3.8
			c-1.3,0.9-2.9,1.3-4.4,1.2c-2,0.1-4-0.6-5.5-1.9c-1.4-1.6-2.1-3.6-1.9-5.7c-0.1-2.1,0.7-4.2,2.2-5.8c1.7-1.4,3.9-2.1,6.1-2
			c1.5-0.1,3,0.3,4.2,1.1c0.9,0.6,1.5,1.6,1.5,2.7c0.1,0.8-0.2,1.7-0.7,2.3c-0.5,0.5-1.2,0.8-1.9,0.8c-0.7,0-1.4-0.2-2-0.7
			c-0.5-0.5-0.8-1.2-0.7-1.9c0-0.4,0.1-0.7,0.2-1.1h1c0.1-0.4,0.2-0.7,0.2-1.1c0.1-0.7-0.4-1.4-1.1-1.5
			C98.9,44.7,98.8,44.7,98.7,44.7z"/>
		<path class="st7" d="M104.8,44.5h7.6v14.2h1.7v0.6H105v-0.6h1.7V45h-1.8L104.8,44.5z M109.5,42.4c-0.9,0.1-1.7-0.2-2.3-0.8
			c-0.5-0.6-0.7-1.3-0.7-2.1c0-0.7,0.3-1.5,0.8-2c0.6-0.6,1.5-0.9,2.3-0.8c0.9-0.1,1.7,0.2,2.4,0.7c0.6,0.5,0.9,1.3,0.8,2.1
			c0,0.8-0.2,1.6-0.8,2.2C111.3,42.2,110.4,42.4,109.5,42.4z"/>
		<path class="st7" d="M114.8,44.5h7.5v2.8c0.3-0.9,0.8-1.7,1.5-2.3c0.9-0.6,2-0.9,3.1-0.9c3.2,0,4.8,1.7,4.8,5.2v9.3h1.7v0.6h-8.8
			v-0.6h1.3V48.6c0.1-0.8,0-1.6-0.3-2.4c-0.1-0.4-0.5-0.6-0.9-0.5c-0.7,0-1.3,0.4-1.8,1.3c-0.5,1-0.8,2.1-0.8,3.2v8.5h1.3v0.6h-8.8
			v-0.6h1.7V45h-1.7L114.8,44.5z"/>
		<path class="st7" d="M146.3,42.9l0.9-0.5c0.1-0.7-0.1-1-0.8-1c-0.9,0-1.3,0.7-1.3,2c0,0.6,0.1,1.2,0.2,1.9c1.4,0.8,2.3,2.4,2.4,4
			c0.1,1.5-0.6,2.9-1.7,3.8c-1.3,1-3,1.4-4.6,1.4c-0.8,0-1.7-0.1-2.5-0.3c-0.9,0.6-1.4,1-1.4,1.3s0.7,0.4,2,0.4h3.2c4.7,0,7,1.7,7,5
			c0.1,1.7-0.7,3.3-2.1,4.3c-1.4,1.1-3.6,1.6-6.6,1.6c-5.1,0-7.6-1.1-7.6-3.3c0-1.2,0.8-2,2.4-2.5l1.9,0.8c-0.2,0.6-0.2,1.1-0.2,1.7
			c0,1.8,1.3,2.7,4,2.7c1.3,0.1,2.6-0.2,3.7-0.9c0.8-0.5,1.3-1.3,1.3-2.2c0.1-0.7-0.2-1.4-0.8-1.8c-1-0.4-2.1-0.5-3.1-0.5h-3
			c-1.3,0.1-2.5-0.2-3.6-0.8c-0.7-0.5-1.1-1.2-1.1-2.1c0-0.7,0.3-1.5,0.8-2c0.8-0.8,1.8-1.4,2.8-2c-2.2-0.4-3.8-2.5-3.6-4.7
			c0-1.4,0.6-2.8,1.7-3.8c1.4-1,3.2-1.5,5-1.4c1.2,0,2.4,0.2,3.4,0.8c-0.1-0.5-0.2-1-0.2-1.5c-0.1-0.9,0.3-1.9,0.9-2.5
			c0.6-0.5,1.3-0.8,2.1-0.8c0.7,0,1.3,0.2,1.8,0.6c0.5,0.4,0.7,1,0.7,1.7c0,0.6-0.2,1.1-0.6,1.6c-0.4,0.3-0.8,0.5-1.4,0.5
			c-0.5,0-0.9-0.1-1.3-0.4C146.5,43.7,146.3,43.3,146.3,42.9z M139.8,48.7v1.7c-0.1,1,0.1,1.9,0.4,2.8c0.2,0.4,0.6,0.7,1.1,0.7
			c0.5,0,0.9-0.3,1.1-0.7c0.3-1,0.4-2,0.3-3v-1.5c0.1-1.1,0-2.1-0.3-3.2c-0.1-0.4-0.5-0.7-1-0.8c-0.5,0-0.9,0.3-1.1,0.8
			C139.8,46.5,139.7,47.6,139.8,48.7z"/>
		<path class="st7" d="M9.9,96.1c1,0,1.9-0.3,2.7-0.8c0.8-0.6,1.3-1.5,1.2-2.5c0-1-0.4-2-1.3-2.6c-1.1-0.7-2.4-1.2-3.7-1.6
			c-1.2-0.3-2.3-0.7-3.4-1.2c-0.7-0.3-1.4-0.8-2-1.3c-1.4-1.3-2.1-3.1-1.9-5c0-1.8,0.7-3.5,2-4.8c1.4-1.4,3.4-2.1,5.4-2
			c1.2,0,2.3,0.2,3.4,0.5c0.7,0.2,1.5,0.4,2.2,0.5c0.3,0,0.5-0.2,0.8-0.6h0.3l0.2,6.3h-0.5c-0.8-1.6-1.9-3-3.1-4.3
			c-0.9-1-2.2-1.6-3.5-1.6c-1.1-0.1-2.1,0.2-3,0.9c-0.7,0.6-1,1.5-1,2.4c0,0.9,0.5,1.8,1.3,2.3c1,0.6,2,1,3.1,1.3
			c1.2,0.3,2,0.6,2.4,0.7l1.4,0.5c0.5,0.2,1,0.4,1.4,0.7c0.4,0.3,0.8,0.6,1.1,0.9c0.4,0.3,0.7,0.7,0.9,1.2c1.4,2.9,0.9,6.5-1.3,8.9
			c-1.5,1.4-3.5,2.1-5.5,2c-1.4,0-2.7-0.2-4.1-0.5C4,96,3.1,95.8,3,95.8s-0.6,0.3-0.8,0.9H1.7l-0.3-7.4h0.5c0.9,1.8,2.1,3.4,3.5,4.7
			C6.6,95.3,8.2,96,9.9,96.1z"/>
		<path class="st7" d="M20.3,92v-9.8h-1.7v-0.6h1.7v-4l5.7-1.4v5.4h4v0.6h-4v10.4c0,0.7,0.1,1.5,0.3,2.1c0.2,0.5,0.7,0.7,1.2,0.7
			c0.7,0,1.3-0.4,1.6-0.9c0.5-0.8,0.9-1.7,1-2.6l0.5,0.1c-0.1,1.2-0.6,2.4-1.4,3.4c-1,0.9-2.3,1.4-3.7,1.3c-1.4,0.1-2.8-0.3-3.9-1
			C20.7,95.1,20.3,93.8,20.3,92z"/>
		<path class="st7" d="M38.4,89.2h0.9v-2.4c0.1-1.3,0-2.7-0.3-4c-0.1-0.6-0.6-1-1.3-1c-0.4,0-0.7,0.1-1,0.3
			c-0.3,0.2-0.5,0.5-0.5,0.8c0,0.3,0.1,0.7,0.2,1h0.8c0.2,0.5,0.3,1,0.3,1.6c0,0.6-0.3,1.2-0.8,1.6c-0.6,0.5-1.3,0.7-2,0.7
			c-1.8,0-2.7-0.9-2.7-2.6c0-2.5,2.2-3.8,6.5-3.8c2.5,0,4.2,0.4,5.1,1.3S45,85,45,87.2v6.3c0,1.1,0.3,1.6,0.9,1.6s1.1-1.1,1.2-3.2
			h0.5c0.1,1.3-0.3,2.6-1,3.8c-0.8,0.7-1.9,1.1-2.9,1c-2.5,0-3.9-0.8-4.3-2.3c-0.2,0.7-0.6,1.3-1.2,1.7c-0.7,0.4-1.5,0.6-2.3,0.6
			c-3.1,0-4.6-1.3-4.6-3.8c-0.1-1.3,0.6-2.4,1.8-3C34.7,89.4,36.5,89.1,38.4,89.2z M37.3,95.1c0.1,0.3,0.4,0.5,0.7,0.5
			c0.3,0,0.6-0.3,0.9-0.8c0.3-0.7,0.5-1.4,0.4-2.2v-2.9h-0.2c-1.3,0-1.9,0.9-1.9,2.8V93C37.1,93.7,37.2,94.4,37.3,95.1z"/>
		<path class="st7" d="M58.3,82.6c-0.9,0.1-1.7,0.7-2,1.5c-0.6,1.1-0.9,2.3-0.9,3.5v8.3h2.2v0.6H48v-0.6h1.7V82.2H48v-0.6h7.5v3
			c0.4-1.9,2.2-3.3,4.2-3.3c0.9,0,1.7,0.2,2.4,0.8c0.6,0.6,1,1.4,0.9,2.3c0.1,0.8-0.2,1.6-0.7,2.3c-0.5,0.6-1.3,0.9-2.1,0.8
			c-0.8,0.1-1.6-0.3-2.1-0.9c-0.5-0.8-0.5-1.7-0.2-2.6H59C59.5,83.1,59.3,82.6,58.3,82.6z"/>
		<path class="st7" d="M64.8,92v-9.8h-1.7v-0.6h1.7v-4l5.8-1.4v5.4h4v0.6h-4v10.5c0,0.7,0.1,1.5,0.3,2.1c0.2,0.5,0.7,0.7,1.2,0.7
			c0.7,0,1.3-0.4,1.6-0.9c0.5-0.8,0.8-1.7,0.9-2.6l0.5,0.1c-0.1,1.2-0.6,2.4-1.4,3.4c-1,0.9-2.3,1.4-3.7,1.3c-1.4,0.1-2.8-0.3-3.9-1
			C65.3,95.1,64.8,93.8,64.8,92z"/>
		<path class="st7" d="M93.5,96.4h-7.1l-0.3-2.3c-0.3,0.8-0.8,1.4-1.5,1.9c-0.9,0.5-1.9,0.7-2.9,0.7c-3.2,0-4.8-1.7-4.8-5.2v-9.3
			h-1.7v-0.6h7.5v10.6c-0.1,0.8,0,1.7,0.3,2.4c0.2,0.4,0.6,0.6,1,0.6c0.6-0.1,1.2-0.4,1.4-1c0.5-0.8,0.7-1.7,0.6-2.6v-9.5h-1.4v-0.6
			h7.2v14.2h1.7V96.4z"/>
		<path class="st7" d="M101.5,81.7v2.4c0.7-1.8,2.4-2.9,4.3-2.8c1.6-0.1,3.2,0.6,4.1,1.9c1,1.3,1.5,3.2,1.5,5.8s-0.5,4.5-1.6,5.8
			c-1.2,1.3-3,2-4.8,1.9c-0.8,0-1.5-0.1-2.2-0.4c-0.5-0.3-0.9-0.7-1.2-1.2v8h4v0.6H94.1v-0.6h1.7v-21h-1.6v-0.6L101.5,81.7z
			 M105.1,83.8c-0.2-0.7-0.6-1.1-1.2-1.1c-0.7,0.1-1.3,0.5-1.6,1.2c-0.5,1-0.8,2-0.7,3.1v5.7c0,0.8,0.2,1.6,0.5,2.3
			c0.3,0.6,0.9,0.9,1.6,0.9c0.7,0,1.2-0.4,1.4-1.4c0.3-1.6,0.4-3.2,0.4-4.8v-1.6C105.5,86.7,105.4,85.2,105.1,83.8z"/>
		<path class="st7" d="M113.1,96.8v-5.6h0.4c0.3,1.5,1.1,2.8,2.2,3.8c1,0.7,2.2,1.1,3.4,1.1c2.1,0,3.2-0.7,3.2-2
			c0-0.5-0.3-1.1-0.8-1.3c-1-0.5-2-0.8-3.1-1c-1.3-0.3-2.4-0.8-3.5-1.5c-1.2-0.8-1.8-2.1-1.7-3.5c-0.1-1.4,0.5-2.8,1.5-3.9
			c1.1-1,2.5-1.5,4-1.4c1.1,0,2.1,0.3,3.1,0.7c0.3,0.1,0.6,0.2,0.9,0.3c0.2,0,0.4-0.1,0.5-0.2c0.2-0.2,0.4-0.5,0.5-0.8h0.3v4.8h-0.4
			c-1.1-2.7-2.7-4-4.9-4c-0.8-0.1-1.5,0.1-2.2,0.5c-0.4,0.3-0.7,0.8-0.7,1.3c0,0.3,0.1,0.5,0.2,0.7c0.2,0.2,0.3,0.3,0.3,0.4
			c0.1,0.1,0.3,0.2,0.4,0.3c0.1,0.1,0.3,0.2,0.5,0.2c0.1,0,0.3,0.1,0.6,0.2c0.2,0.1,0.4,0.1,0.6,0.2c1,0.2,2,0.5,3,0.9
			c0.6,0.3,1.2,0.6,1.8,1c1.2,0.9,1.8,2.3,1.7,3.8c0.1,1.5-0.5,3-1.6,4c-1.2,1-2.7,1.4-4.3,1.3c-1.3,0-2.6-0.3-3.7-0.9
			c-0.2-0.1-0.4-0.2-0.6-0.3c-0.4,0-0.9,0.4-1.3,1.2L113.1,96.8z"/>
	</g>
</g>
</svg>
