<svg xmlns="http://www.w3.org/2000/svg" xmlns:xlink="http://www.w3.org/1999/xlink" viewBox="0 0 300 300"><defs><style>.cls-1{fill:url(#linear-gradient);}.cls-2{fill:url(#linear-gradient-2);}.cls-3{fill:url(#linear-gradient-3);}.cls-4{fill:url(#linear-gradient-4);}.cls-5{fill:url(#linear-gradient-5);}.cls-6{fill:url(#linear-gradient-6);}.cls-7{fill:url(#linear-gradient-7);}.cls-8{fill:url(#linear-gradient-8);}</style><linearGradient id="linear-gradient" x1="0.28" y1="229.07" x2="300.25" y2="229.07" gradientUnits="userSpaceOnUse"><stop offset="0" stop-color="#309"/><stop offset="0.32" stop-color="#242e7b"/><stop offset="1" stop-color="#093"/></linearGradient><linearGradient id="linear-gradient-2" x1="0.25" y1="32.85" x2="300.25" y2="32.85" xlink:href="#linear-gradient"/><linearGradient id="linear-gradient-3" x1="0.25" y1="160.81" x2="300.25" y2="160.81" xlink:href="#linear-gradient"/><linearGradient id="linear-gradient-4" x1="0.25" y1="162.76" x2="300.25" y2="162.76" xlink:href="#linear-gradient"/><linearGradient id="linear-gradient-5" x1="0.25" y1="240.57" x2="300.25" y2="240.57" xlink:href="#linear-gradient"/><linearGradient id="linear-gradient-6" x1="0.01" y1="223.89" x2="300.43" y2="223.89" xlink:href="#linear-gradient"/><linearGradient id="linear-gradient-7" x1="0.25" y1="66.5" x2="300.25" y2="66.5" xlink:href="#linear-gradient"/><linearGradient id="linear-gradient-8" x1="0.25" y1="91.88" x2="300.25" y2="91.88" xlink:href="#linear-gradient"/></defs><title>cicon</title><g id="Layer_2" data-name="Layer 2"><g id="Capa_1" data-name="Capa 1"><path class="cls-1" d="M300.25,213.74V244.4c0,9.68-8.37,17.52-18.71,17.52H181.06V238a18,18,0,0,0-3.9-11.13h85.67V213.74c0-9.68,8.37-17.52,18.71-17.52S300.25,204.06,300.25,213.74Z" transform="translate(-0.25)"/><path class="cls-2" d="M300.25,17.52V48.18c0,9.68-8.37,17.52-18.71,17.52s-18.71-7.84-18.71-17.52V35H169.28V52.22a20.75,20.75,0,0,0-13.72-5.09h-23.7V17.52C131.86,7.85,140.24,0,150.57,0h131C291.88,0,300.25,7.85,300.25,17.52Z" transform="translate(-0.25)"/><path class="cls-3" d="M244.12,113.45c10.34,0,18.71,7.84,18.71,17.52s-8.37,17.51-18.71,17.51H169.28V220.9a20.83,20.83,0,0,0-8.28-1.68c-11.09,0-20.06,8.41-20.06,18.79v2.82h-9.08V136.63l37.42-55.84v32.66Z" transform="translate(-0.25)"/><path class="cls-4" d="M181.06,261.92v19.3c0,10.37-9,18.78-20.06,18.78s-20.06-8.41-20.06-18.78V278.4H25.74a20.34,20.34,0,0,1-17.56-9.7,17.78,17.78,0,0,1,.57-19.07L119.29,84.7H40.38v2.82c0,10.37-9,18.79-20.07,18.79S.25,97.89.25,87.52V44.31c0-10.37,9-18.79,20.06-18.79s20.07,8.42,20.07,18.79v2.82h91.48v89.5L62,240.83h69.84v3.57c0,9.68,8.38,17.52,18.71,17.52Z" transform="translate(-0.25)"/><path class="cls-5" d="M181.06,238v23.91H150.57c-10.33,0-18.71-7.84-18.71-17.52v-3.57h9.08V238c0-10.38,9-18.79,20.06-18.79a20.83,20.83,0,0,1,8.28,1.68v6h7.88A18,18,0,0,1,181.06,238Z" transform="translate(-0.25)"/><path class="cls-6" d="M177.16,226.88h-7.88v-6A19.88,19.88,0,0,1,177.16,226.88Z" transform="translate(-0.25)"/><path class="cls-7" d="M173.12,56.82a17.75,17.75,0,0,1-.56,19.08l-3.28,4.89V52.22A18.56,18.56,0,0,1,173.12,56.82Z" transform="translate(-0.25)"/><path class="cls-8" d="M169.28,52.22V80.79l-37.42,55.84V47.13h23.7A20.75,20.75,0,0,1,169.28,52.22Z" transform="translate(-0.25)"/></g></g></svg>