<svg id="Layer_1" data-name="Layer 1" xmlns="http://www.w3.org/2000/svg" xmlns:xlink="http://www.w3.org/1999/xlink" viewBox="0 0 1920 1080"><defs><style>.cls-1{fill:none;}.cls-2{clip-path:url(#clip-path);}.cls-3{fill:url(#radial-gradient);}.cls-4{clip-path:url(#clip-path-3);}.cls-5{fill:#ffce07;}</style><clipPath id="clip-path"><rect class="cls-1" width="1920" height="1080"/></clipPath><radialGradient id="radial-gradient" cx="1714.37" cy="406.69" r="1934.69" gradientUnits="userSpaceOnUse"><stop offset="0.32" stop-color="#2c2254"/><stop offset="1" stop-color="#16154a"/></radialGradient><clipPath id="clip-path-3"><rect class="cls-1" x="-26.4" y="-187.25" width="2095.3" height="2095.3"/></clipPath></defs><title>Cover</title><g class="cls-2"><rect class="cls-3" x="-40.6" y="-260.48" width="2001.2" height="1600.96"/></g><g class="cls-2"><g class="cls-4"><polygon class="cls-5" points="-282.32 892.35 -58.67 883.34 -58.88 883.45 465.84 282.07 466.29 281.55 466.87 281.9 1288.83 768.57 1287.81 768.6 1628.27 538.19 1628.76 537.86 1629.21 538.25 1998.33 855.79 1997.76 855.7 2388.26 688.13 1998.19 856.75 1997.88 856.88 1997.61 856.66 1628.2 539.45 1629.14 539.51 1288.88 770.24 1288.38 770.58 1287.86 770.27 466.04 283.35 467.07 283.18 -58.44 883.84 -58.52 883.94 -58.65 883.94 -282.32 892.35"/><path class="cls-5" d="M-282,912.28l218.12-14.91-.2.09L455.83,306.9l.42-.48.57.29L667.44,416.23,772.75,471l26.33,13.69,25.5,15.21,51,30.5,407.54,244.24h-1L1624.53,571.8l.47-.28.42.35,44.95,38.22,5.62,4.78,5.88,4.44,11.78,8.87,23.57,17.72,94.26,70.9,94.26,70.89c8,5.73,15.35,12.29,22.94,18.56l22.62,19,45.26,37.89L1996,863l392.08-145.71L1996.4,864.06l-.3.12-.25-.21-45.28-37.85-22.64-18.92c-7.58-6.25-14.94-12.81-22.94-18.53l-94.33-70.81-94.33-70.81-23.59-17.7L1681,620.5l-5.88-4.44-5.63-4.77-45-38.21.89.08L1283.09,776.32l-.49.29-.48-.3L874.53,532.24,823.6,501.69l-25.49-15.23L771.8,472.75,666.56,417.9,456.07,308.21l1-.19L-63.67,897.86l-.08.09h-.12Z"/><polygon class="cls-5" points="-281.74 932.2 -69.15 911.39 -69.34 911.48 445.82 331.74 446.22 331.28 446.77 331.53 792.23 486.75 792.28 486.78 792.34 486.81 1277.36 780.7 1276.44 780.66 1620.79 605.4 1621.24 605.17 1621.63 605.5 1672.98 648.66 1672.91 648.6 1910.22 801.45 1910.25 801.47 1910.28 801.49 1994.78 870.4 1994.27 870.3 2387.91 746.45 1994.6 871.38 1994.32 871.47 1994.08 871.28 1909.52 802.46 1909.57 802.5 1672.11 649.88 1672.07 649.85 1672.04 649.82 1620.64 606.71 1621.48 606.81 1277.3 782.4 1276.83 782.64 1276.38 782.36 791.31 488.56 791.41 488.62 446.1 333.06 447.05 332.86 -68.91 911.88 -68.98 911.96 -69.1 911.98 -281.74 932.2"/><polygon class="cls-5" points="-281.45 952.12 -74.39 925.41 -74.57 925.5 435.81 356.57 436.19 356.15 436.71 356.35 784.77 488.52 784.86 488.56 784.93 488.6 1271.62 786.76 1270.76 786.7 1617.05 639.01 1617.48 638.83 1617.84 639.12 1669.76 682.26 1669.64 682.18 1907.07 809.48 1907.12 809.5 1907.16 809.54 1993.01 877.7 1992.53 877.6 2387.74 775.61 1992.8 878.7 1992.54 878.77 1992.32 878.59 1906.4 810.51 1906.5 810.57 1668.94 683.51 1668.88 683.47 1668.82 683.42 1616.86 640.34 1617.65 640.45 1271.5 788.48 1271.05 788.67 1270.64 788.41 783.9 490.34 784.07 490.43 436.13 357.92 437.03 357.7 -74.14 925.9 -74.22 925.98 -74.32 925.99 -281.45 952.12"/><polygon class="cls-5" points="-281.17 972.05 -79.64 939.43 -79.8 939.52 425.81 381.4 426.16 381.02 426.65 381.17 777.3 490.29 777.42 490.33 777.53 490.4 1265.89 792.82 1265.09 792.73 1613.31 672.62 1613.72 672.48 1614.05 672.75 1666.54 715.86 1666.36 715.76 1903.9 817.5 1903.98 817.53 1904.04 817.58 1991.23 885 1990.78 884.9 2387.57 804.77 1991 886.01 1990.76 886.06 1990.55 885.91 1903.29 818.57 1903.43 818.65 1665.79 717.14 1665.69 717.1 1665.61 717.03 1613.08 673.97 1613.81 674.1 1265.7 794.55 1265.28 794.7 1264.9 794.46 776.49 492.13 776.72 492.23 426.17 382.77 427.02 382.54 -79.38 939.91 -79.45 939.99 -79.55 940 -281.17 972.05"/><polygon class="cls-5" points="-280.88 991.97 -84.88 953.46 -85.03 953.54 415.8 406.24 416.13 405.88 416.59 406 769.84 492.07 769.99 492.11 770.13 492.19 1260.15 798.88 1259.42 798.77 1609.58 706.23 1609.96 706.13 1610.26 706.37 1663.31 749.47 1663.08 749.34 1900.73 825.52 1900.83 825.56 1900.92 825.62 1989.46 892.3 1989.04 892.2 2387.39 833.93 1989.2 893.33 1988.98 893.36 1988.79 893.22 1900.18 826.62 1900.37 826.72 1662.63 750.76 1662.5 750.72 1662.39 750.64 1609.3 707.6 1609.97 707.74 1259.89 800.63 1259.5 800.73 1259.16 800.52 769.08 493.91 769.37 494.04 416.21 407.62 417 407.37 -84.62 953.93 -84.68 954 -84.77 954.02 -280.88 991.97"/><polygon class="cls-5" points="-280.59 1011.89 -90.12 967.48 -90.26 967.56 405.8 431.08 406.1 430.75 406.53 430.83 762.37 493.85 762.56 493.88 762.73 493.99 1254.42 804.94 1253.75 804.81 1605.85 739.84 1606.2 739.78 1606.47 740 1660.09 783.07 1659.79 782.92 1897.56 833.55 1897.69 833.58 1897.8 833.66 1987.68 899.61 1987.3 899.5 2387.22 863.09 1987.41 900.64 1987.2 900.66 1987.02 900.53 1897.07 834.67 1897.31 834.78 1659.48 784.39 1659.31 784.35 1659.18 784.24 1605.52 741.23 1606.13 741.38 1254.09 806.7 1253.73 806.77 1253.42 806.57 761.68 495.7 762.03 495.83 406.25 432.46 406.99 432.21 -89.86 967.95 -89.92 968.01 -90 968.03 -280.59 1011.89"/><polygon class="cls-5" points="-280.3 1031.82 -95.36 981.51 -95.49 981.59 395.79 455.91 396.07 455.62 396.47 455.66 754.9 495.63 755.13 495.66 755.32 495.78 1248.68 810.99 1248.08 810.85 1602.13 773.46 1602.44 773.43 1602.68 773.62 1656.87 816.67 1656.49 816.51 1894.38 841.59 1894.54 841.61 1894.67 841.7 1985.91 906.91 1985.56 906.8 2387.04 892.24 1985.61 907.95 1985.42 907.96 1985.26 907.84 1893.96 842.73 1894.25 842.84 1656.34 818 1656.13 817.98 1655.96 817.85 1601.73 774.86 1602.29 775.02 1248.28 812.77 1247.95 812.8 1247.67 812.62 754.27 497.48 754.69 497.63 396.29 457.3 396.97 457.05 -95.09 981.97 -95.15 982.02 -95.22 982.04 -280.3 1031.82"/><polygon class="cls-5" points="-280.02 1051.74 -100.61 995.53 -100.72 995.61 385.79 480.75 386.04 480.48 386.41 480.5 747.44 497.42 747.7 497.44 747.92 497.58 1242.95 817.05 1242.42 816.9 1598.4 807.08 1598.68 807.07 1598.9 807.24 1653.65 850.27 1653.2 850.11 1891.2 849.63 1891.39 849.63 1891.55 849.74 1984.13 914.21 1983.82 914.11 2386.87 921.4 1983.81 915.26 1983.63 915.25 1983.49 915.16 1890.85 850.78 1891.2 850.89 1653.2 851.61 1652.95 851.62 1652.74 851.46 1597.95 808.49 1598.44 808.65 1242.47 818.83 1242.18 818.84 1241.93 818.68 746.86 499.26 747.35 499.42 386.33 482.13 386.95 481.88 -100.33 995.98 -100.38 996.04 -100.45 996.06 -280.02 1051.74"/><polygon class="cls-5" points="-279.73 1071.66 -105.85 1009.56 -105.95 1009.63 375.79 505.59 376.02 505.35 376.35 505.34 739.97 499.22 740.27 499.21 740.51 499.38 1237.22 823.1 1236.75 822.95 1594.67 840.71 1594.92 840.72 1595.11 840.87 1650.43 883.87 1649.9 883.72 1888.02 857.68 1888.24 857.66 1888.43 857.78 1982.36 921.51 1982.08 921.42 2386.69 950.56 1982.01 922.56 1981.86 922.55 1981.73 922.47 1887.74 858.84 1888.15 858.94 1650.06 885.22 1649.76 885.25 1649.53 885.07 1594.17 842.12 1594.6 842.28 1236.66 824.89 1236.4 824.88 1236.19 824.74 739.46 501.05 740 501.2 376.37 506.96 376.93 506.72 -105.57 1010 -105.61 1010.05 -105.67 1010.07 -279.73 1071.66"/><polygon class="cls-5" points="-279.44 1091.59 -111.09 1023.59 -111.18 1023.65 365.79 530.43 365.99 530.21 366.29 530.19 732.51 501.02 732.83 500.99 733.11 501.17 1231.49 829.16 1231.09 829.01 1590.95 874.33 1591.16 874.36 1591.32 874.49 1647.21 917.47 1646.61 917.33 1884.84 865.74 1885.09 865.68 1885.31 865.83 1980.58 928.81 1980.34 928.73 2386.52 979.72 1980.21 929.87 1980.08 929.85 1979.96 929.78 1884.63 866.89 1885.1 866.98 1646.92 918.81 1646.58 918.88 1646.31 918.67 1590.38 875.75 1590.76 875.9 1230.85 830.94 1230.63 830.91 1230.44 830.79 732.05 502.83 732.66 502.98 366.41 531.79 366.91 531.55 -110.81 1024.02 -110.85 1024.06 -110.9 1024.08 -279.44 1091.59"/><polygon class="cls-5" points="-279.15 1111.51 -116.33 1037.62 -116.41 1037.67 355.79 555.27 355.97 555.08 356.23 555.04 725.04 502.82 725.4 502.77 725.71 502.97 1225.76 835.21 1225.42 835.07 1587.22 907.97 1587.39 908 1587.54 908.11 1643.99 951.07 1643.31 950.95 1881.66 873.8 1881.94 873.71 1882.19 873.87 1978.81 936.12 1978.6 936.04 2386.34 1008.88 1978.41 937.17 1978.3 937.15 1978.2 937.09 1881.52 874.94 1882.05 875.01 1643.77 952.4 1643.4 952.52 1643.09 952.28 1586.6 909.38 1586.91 909.53 1225.04 836.99 1224.86 836.96 1224.7 836.85 724.65 504.61 725.31 504.76 356.45 556.61 356.89 556.39 -116.05 1038.03 -116.08 1038.07 -116.12 1038.09 -279.15 1111.51"/><polygon class="cls-5" points="-278.87 1131.43 -121.57 1051.64 -121.64 1051.69 345.78 580.11 345.95 579.94 346.18 579.89 717.58 504.63 717.97 504.55 718.3 504.77 1220.03 841.26 1219.75 841.13 1583.49 941.6 1583.63 941.64 1583.75 941.73 1640.77 984.66 1640.03 984.58 1878.49 881.87 1878.79 881.74 1879.07 881.91 1977.03 943.42 1976.86 943.35 2386.17 1038.04 1976.61 944.48 1976.52 944.46 1976.43 944.4 1878.41 883 1878.98 883.04 1640.62 985.98 1640.22 986.16 1639.87 985.89 1582.81 943.02 1583.08 943.15 1219.24 843.04 1219.09 843 1218.95 842.91 717.24 506.39 717.96 506.53 346.48 581.43 346.87 581.22 -121.28 1052.05 -121.31 1052.08 -121.35 1052.1 -278.87 1131.43"/><polygon class="cls-5" points="-278.58 1151.36 -126.81 1065.67 -126.86 1065.71 335.78 604.95 335.93 604.8 336.13 604.75 710.13 506.44 710.54 506.33 710.89 506.57 1214.3 847.31 1214.08 847.2 1579.76 975.24 1579.87 975.28 1579.97 975.35 1637.55 1018.26 1636.75 1018.2 1875.33 889.94 1875.64 889.77 1875.95 889.95 1975.26 950.72 1975.12 950.66 2385.99 1067.19 1974.81 951.78 1974.74 951.76 1974.67 951.72 1875.3 891.05 1875.92 891.06 1637.46 1019.57 1637.04 1019.79 1636.65 1019.51 1579.03 976.65 1579.24 976.76 1213.43 849.09 1213.32 849.04 1213.21 848.97 709.84 508.17 710.6 508.3 336.51 606.25 336.85 606.05 -126.52 1066.07 -126.55 1066.09 -126.58 1066.11 -278.58 1151.36"/><polygon class="cls-5" points="-278.29 1171.28 -132.05 1079.7 -132.09 1079.73 325.78 629.79 325.91 629.66 326.08 629.61 702.68 508.25 703.11 508.11 703.49 508.36 1208.57 853.36 1208.4 853.27 1576.02 1008.88 1576.11 1008.91 1576.18 1008.97 1634.34 1051.86 1633.47 1051.83 1872.17 898.01 1872.49 897.8 1872.83 898 1973.48 958.02 1973.37 957.97 2385.82 1096.35 1973.02 959.08 1972.96 959.06 1972.9 959.03 1872.19 899.1 1872.84 899.09 1634.3 1053.14 1633.86 1053.43 1633.44 1053.12 1575.24 1010.28 1575.4 1010.38 1207.63 855.13 1207.55 855.09 1207.46 855.03 702.44 509.95 703.25 510.07 326.53 631.06 326.83 630.88 -131.76 1080.08 -131.78 1080.1 -131.8 1080.12 -278.29 1171.28"/><polygon class="cls-5" points="-278 1191.2 -137.29 1093.73 -137.32 1093.76 315.78 654.63 315.89 654.52 316.04 654.47 695.23 510.06 695.68 509.89 696.08 510.16 1202.84 859.41 1202.72 859.34 1572.28 1042.52 1572.34 1042.55 1572.4 1042.59 1631.12 1085.45 1630.21 1085.46 1869.02 906.08 1869.35 905.83 1869.7 906.04 1971.71 965.33 1971.63 965.29 2385.65 1125.51 1971.22 966.38 1971.18 966.36 1971.14 966.34 1869.08 907.15 1869.77 907.11 1631.13 1086.72 1630.67 1087.06 1630.22 1086.73 1571.46 1043.92 1571.57 1043.99 1201.84 861.17 1201.78 861.14 1201.72 861.1 695.03 511.73 695.88 511.83 316.56 655.88 316.81 655.72 -137 1094.1 -137.01 1094.11 -137.03 1094.12 -278 1191.2"/><polygon class="cls-5" points="-277.71 1211.13 -142.53 1107.76 -142.55 1107.78 305.79 679.47 305.88 679.38 306 679.33 687.78 511.87 688.25 511.67 688.67 511.96 1197.11 865.46 1197.04 865.41 1568.54 1076.16 1568.58 1076.18 1568.61 1076.21 1627.9 1119.05 1626.95 1119.09 1865.87 914.15 1866.2 913.87 1866.58 914.08 1969.93 972.63 1969.88 972.6 2385.47 1154.67 1969.43 973.68 1969.4 973.67 1969.37 973.65 1865.97 915.2 1866.68 915.13 1627.95 1120.3 1627.49 1120.7 1627 1120.34 1567.67 1077.55 1567.74 1077.6 1196.05 867.21 1196.01 867.18 1195.97 867.16 687.63 513.51 688.52 513.6 306.57 680.69 306.79 680.55 -142.24 1108.12 -142.25 1108.13 -142.26 1108.13 -277.71 1211.13"/><path class="cls-5" d="M-277.43,1231.05l74.39-62.68,37.19-31.34,18.57-15.7,17.71-16.69L12.15,971.12,295.79,704.31l.07-.07.1,0,384.38-190.5.49-.24.44.31L1147.91,841l29.15,20.47,14.59,10.23,15,9.57,60,38.31,120,76.6,120,76.61c20,12.81,40.08,25.43,60,38.41l58,41.47-1,.07,239-230.5.34-.32.4.23,63.92,35.29,32,17.64,8,4.42c2.69,1.41,5.46,2.69,8.18,4l16.4,8L2123,1055.61l262.26,128.22-262.61-127.51-131.3-63.78-16.4-8c-2.73-1.35-5.49-2.62-8.18-4l-8-4.4-32-17.62-64-35.24.74-.1-238.83,230.72-.46.45-.53-.38-58-41.39c-19.89-13-40-25.56-60-38.35l-120.12-76.5-120.11-76.49L1205.53,883l-15-9.56-14.59-10.21-29.18-20.45L680.23,515.29l.92.07L296.59,705.5l.17-.12L12.84,971.9-129.23,1105-147,1121.67l-18.61,15.65-37.28,31.25Z"/><polygon class="cls-5" points="-277.14 1250.97 285.79 729.15 285.85 729.09 285.93 729.05 672.91 515.5 673.4 515.23 673.86 515.56 1621.46 1186.24 1620.44 1186.35 1859.58 930.3 1859.91 929.94 1860.34 930.17 2385.12 1212.99 1859.75 931.31 1860.5 931.18 1621.59 1187.46 1621.12 1187.96 1620.56 1187.56 672.82 517.07 673.77 517.12 286.6 730.32 286.74 730.22 -277.14 1250.97"/><polygon class="cls-5" points="-277.54 1258.52 276.58 755.25 276.64 755.2 276.72 755.16 668.33 539.9 668.83 539.62 669.29 539.96 1581.61 1195.71 1580.62 1195.77 1861.11 947.19 1861.44 946.9 1861.82 947.1 2385.12 1225.78 1861.23 948.25 1861.94 948.16 1581.68 1197 1581.2 1197.42 1580.68 1197.05 668.24 541.46 669.2 541.51 277.39 756.41 277.52 756.32 -277.54 1258.52"/><polygon class="cls-5" points="-277.93 1266.06 267.38 781.36 267.44 781.3 267.51 781.27 663.76 564.29 664.26 564.02 664.72 564.35 1541.76 1205.18 1540.79 1205.19 1862.63 964.09 1862.95 963.85 1863.3 964.03 2385.12 1238.58 1862.72 965.18 1863.39 965.13 1541.77 1206.53 1541.29 1206.89 1540.8 1206.54 663.66 565.84 664.62 565.91 268.17 782.51 268.3 782.42 -277.93 1266.06"/><polygon class="cls-5" points="-278.33 1273.6 258.18 807.46 258.23 807.41 258.3 807.38 659.18 588.68 659.68 588.41 660.14 588.75 1501.91 1214.65 1500.97 1214.62 1864.15 981 1864.46 980.8 1864.78 980.97 2385.12 1251.37 1864.2 982.12 1864.83 982.09 1501.86 1216.05 1501.38 1216.37 1500.92 1216.02 659.08 590.23 660.04 590.3 258.95 808.61 259.08 808.53 -278.33 1273.6"/><polygon class="cls-5" points="-278.73 1281.14 248.97 833.56 249.03 833.52 249.09 833.48 654.61 613.08 655.11 612.8 655.57 613.15 1462.06 1224.12 1461.14 1224.06 1865.67 997.91 1865.96 997.75 1866.26 997.9 2385.12 1264.17 1865.69 999.06 1866.28 999.04 1461.96 1225.57 1461.48 1225.84 1461.04 1225.51 654.49 614.61 655.46 614.69 249.74 834.71 249.85 834.63 -278.73 1281.14"/><polygon class="cls-5" points="-279.13 1288.68 239.77 859.67 239.82 859.62 239.88 859.59 650.03 637.47 650.54 637.2 651 637.55 1422.21 1233.59 1421.3 1233.5 1867.18 1014.83 1867.46 1014.69 1867.74 1014.83 2385.12 1276.96 1867.17 1015.99 1867.74 1016 1422.06 1235.09 1421.58 1235.33 1421.15 1235 649.91 639 650.88 639.08 240.52 860.81 240.63 860.74 -279.13 1288.68"/><polygon class="cls-5" points="-279.52 1296.22 230.57 885.77 230.62 885.73 230.67 885.7 645.46 661.86 645.97 661.59 646.43 661.95 1382.36 1243.06 1381.47 1242.94 1868.69 1031.75 1868.96 1031.64 1869.22 1031.77 2385.12 1289.76 1868.66 1032.93 1869.19 1032.94 1382.17 1244.6 1381.68 1244.81 1381.27 1244.48 645.33 663.38 646.3 663.47 231.3 886.91 231.41 886.84 -279.52 1296.22"/><polygon class="cls-5" points="-279.92 1303.77 221.37 911.87 221.41 911.84 221.47 911.81 640.88 686.26 641.4 685.98 641.86 686.35 1342.52 1252.53 1341.63 1252.38 1870.2 1048.68 1870.46 1048.58 1870.7 1048.7 2385.12 1302.56 1870.15 1049.87 1870.65 1049.89 1342.27 1254.11 1341.79 1254.3 1341.38 1253.97 640.75 687.76 641.72 687.86 222.09 913 222.18 912.94 -279.92 1303.77"/><polygon class="cls-5" points="-280.32 1311.31 212.17 937.98 212.21 937.95 212.26 937.92 636.31 710.65 636.83 710.37 637.28 710.75 1302.67 1261.99 1301.79 1261.83 1871.7 1065.61 1871.95 1065.52 1872.18 1065.63 2385.12 1315.35 1871.63 1066.8 1872.11 1066.83 1302.38 1263.62 1301.9 1263.78 1301.5 1263.45 636.16 712.15 637.14 712.25 212.87 939.1 212.96 939.05 -280.32 1311.31"/><polygon class="cls-5" points="-280.71 1318.85 202.97 964.08 203.01 964.05 203.05 964.03 631.74 735.05 632.26 734.77 632.71 735.15 1262.83 1271.47 1261.94 1271.28 1873.2 1082.53 1873.44 1082.46 1873.66 1082.57 2385.12 1328.15 1873.12 1083.74 1873.58 1083.77 1262.49 1273.12 1262 1273.27 1261.61 1272.94 631.58 736.53 632.56 736.63 203.65 965.2 203.73 965.15 -280.71 1318.85"/><polygon class="cls-5" points="-281.11 1326.39 193.77 990.18 193.8 990.16 193.84 990.14 627.16 759.44 627.69 759.16 628.14 759.56 1222.98 1280.94 1222.1 1280.73 1874.71 1099.46 1874.93 1099.4 1875.14 1099.5 2385.12 1340.94 1874.61 1100.67 1875.04 1100.71 1222.61 1282.62 1222.11 1282.76 1221.72 1282.42 626.99 760.91 627.98 761.02 194.44 991.3 194.51 991.25 -281.11 1326.39"/><polygon class="cls-5" points="-281.51 1333.93 184.57 1016.28 184.6 1016.26 184.63 1016.25 622.59 783.84 623.12 783.55 623.58 783.96 1183.14 1290.41 1182.25 1290.19 1876.2 1116.39 1876.42 1116.34 1876.62 1116.43 2385.12 1353.74 1876.09 1117.61 1876.51 1117.65 1182.72 1292.13 1182.22 1292.26 1181.83 1291.9 622.41 785.29 623.4 785.41 185.22 1017.39 185.28 1017.36 -281.51 1333.93"/><polygon class="cls-5" points="-281.9 1341.48 175.37 1042.39 175.4 1042.37 175.42 1042.36 618.01 808.23 618.56 807.94 619.01 808.37 1143.3 1299.88 1142.4 1299.64 1877.7 1133.33 1877.91 1133.28 1878.1 1133.37 2385.12 1366.53 1877.58 1134.55 1877.98 1134.59 1142.84 1301.63 1142.33 1301.75 1141.94 1301.38 617.82 809.67 618.82 809.8 176 1043.49 176.05 1043.46 -281.9 1341.48"/><polygon class="cls-5" points="-282.3 1349.02 166.18 1068.49 166.19 1068.48 166.22 1068.47 613.44 832.63 613.99 832.34 614.44 832.77 1103.47 1309.36 1102.55 1309.09 1879.2 1150.26 1879.4 1150.22 1879.58 1150.3 2385.12 1379.33 1879.07 1151.48 1879.45 1151.53 1102.96 1311.13 1102.43 1311.24 1102.05 1310.86 613.24 834.04 614.24 834.19 166.79 1069.59 166.83 1069.57 -282.3 1349.02"/><polygon class="cls-5" points="-282.7 1356.56 156.58 1094.83 608.86 857.02 609.42 856.73 609.87 857.18 1063.63 1318.84 1062.7 1318.55 1880.69 1167.19 1880.88 1167.16 1881.06 1167.24 2385.12 1392.12 1880.55 1168.42 1880.92 1168.46 1063.08 1320.63 1062.54 1320.73 1062.15 1320.34 608.65 858.42 609.66 858.58 157.17 1095.92 -282.7 1356.56"/><path class="cls-5" d="M-283.1,1364.1l219.93-124.29,110-62.15,55-31,27.51-15.51c9.19-5.13,18.27-10.47,27.65-15.23L604.29,881.42l.57-.3.45.47,418.49,446.73-.95-.32,859.34-143.87.18,0,.17.07,502.58,220.75L1882,1185.36l.35,0L1023.2,1330.13l-.56.1-.39-.42-418.19-447,1,.18L157.54,1117c-9.39,4.75-18.47,10.08-27.67,15.2l-27.52,15.48-55,31-110.13,61.83Z"/><path class="cls-5" d="M-283.49,1371.64l220.31-117.41c73.46-39.09,146.81-78.41,220.43-117.18L599.71,905.81l.59-.3.44.49L984,1337.81l-1-.36,900.68-136.39.18,0,.16.07,501.1,216.61-501.59-215.42.34,0L983.32,1339.64l-.58.08-.39-.44L599.47,907.16l1,.2L157.81,1138.14Z"/><polygon class="cls-5" points="-283.89 1379.18 -63.13 1268.96 47.24 1213.84 102.45 1186.32 130.05 1172.56 157.41 1158.3 595.14 930.21 595.74 929.89 596.18 930.42 944.14 1347.3 943.14 1346.91 1885.17 1217.99 1885.34 1217.97 1885.5 1218.04 2385.12 1430.51 1885.01 1219.23 1885.34 1219.27 943.44 1349.13 942.84 1349.22 942.45 1348.75 594.88 931.53 595.92 931.75 157.96 1159.4 130.58 1173.63 102.97 1187.37 47.72 1214.8 -62.82 1269.6 -283.89 1379.18"/><polygon class="cls-5" points="-284.29 1386.73 -63.03 1284.01 47.59 1232.65 102.92 1207.01 116.75 1200.6 120.21 1199 123.59 1197.24 130.36 1193.72 157.43 1179.66 590.57 954.6 591.18 954.28 591.62 954.84 904.29 1356.81 903.29 1356.39 1886.66 1234.93 1886.83 1234.91 1886.98 1234.97 2385.12 1443.3 1886.5 1236.16 1886.82 1236.21 903.56 1358.61 902.95 1358.68 902.56 1358.19 590.29 955.9 591.34 956.13 157.96 1180.76 130.87 1194.8 124.1 1198.31 120.72 1200.07 117.26 1201.67 103.42 1208.06 48.04 1233.61 -62.74 1284.65 -284.29 1386.73"/><path class="cls-5" d="M-284.18,1406.18l215-100.67,107.48-50.33L92,1230l13.44-6.28,3.36-1.57,3.29-1.72,6.58-3.43L145,1203.3,566,983.47l.58-.3.43.5,163.7,189.24,81.85,94.62c13.74,15.69,27.06,31.74,40.5,47.69l40.26,47.9-.94-.38,763-76.87,190.37-22.75,23.81-2.74c4-.38,7.87-1,12-1.11a44.33,44.33,0,0,1,5.93,1.55c1.92.59,3.81,1.23,5.72,1.87,15.15,5.18,30.14,10.8,45.13,16.41q44.94,16.92,89.66,34.39,89.49,34.88,178.71,70.4c59.49,23.69,119,47.27,178.3,71.46-59.36-24-118.95-47.41-178.5-70.93s-119.19-46.79-178.91-69.87c-29.85-11.55-59.72-23-89.68-34.29-15-5.6-30-11.2-45.11-16.36a100.91,100.91,0,0,0-11.35-3.34c-3.78.12-7.86.73-11.8,1.12l-23.8,2.76-190.36,23-763,77.54-.57.06-.37-.44-40.21-47.93c-13.41-16-26.72-32-40.44-47.73l-81.75-94.7L565.79,984.79l1,.2L145.53,1204.4l-26.33,13.71-6.58,3.43-3.29,1.71-3.37,1.57-13.44,6.26-53.81,25-107.63,50Z"/><path class="cls-5" d="M-284.07,1425.63-75.39,1327l104.33-49.3,52.18-24.64,13-6.15,3.26-1.54,3.19-1.67,6.39-3.36,25.56-13.41,409-214.59.54-.29.43.45L713.56,1189.9l85.53,88.69c14.46,14.6,28,30.05,41.89,45.21l41.45,45.63-.88-.35,767-60c63.66-7.43,127.35-15,191.07-22l23.92-2.54c4-.39,8-.79,12-1a30.83,30.83,0,0,1,6.09.87c2,.42,3.93.91,5.87,1.42,15.53,4.19,30.76,9.27,46,14.33,30.45,10.21,60.71,21,90.93,31.79q90.62,32.65,180.75,66.68l90.12,34.05,45,17.19c15,5.81,30,11.43,44.85,17.57-14.85-6.1-29.92-11.67-44.9-17.43l-45-17.06L2205,1399.12Q2114.68,1365.55,2024,1333c-30.23-10.81-60.5-21.51-90.94-31.69-15.22-5-30.47-10.1-45.93-14.26-1.93-.5-3.87-1-5.82-1.4a30.38,30.38,0,0,0-5.79-.83c-4,.25-7.94.65-11.92,1l-23.91,2.56c-63.72,7.1-127.36,14.74-191.06,22.25l-766.95,60.61-.53,0-.35-.39-41.39-45.66c-13.84-15.17-27.39-30.63-41.83-45.24l-85.44-88.77L541.3,1013.68l1,.16L133.1,1228l-25.58,13.38-6.39,3.35-3.2,1.67L94.67,1248l-13,6.14-52.24,24.52-104.48,49Z"/><path class="cls-5" d="M-284,1445.08l202.39-96.57,101.19-48.28,50.6-24.12,12.65-6q3.18-1.45,6.26-3.14l6.2-3.27,24.81-13.09L517,1041.22l.51-.27.42.39,178.44,165.44,89.22,82.72c15.16,13.47,28.95,28.41,43.27,42.79l42.64,43.45-.81-.31,770.9-43c63.9-7.27,127.86-14.7,191.86-21.34,8-.83,16-1.63,24-2.34q6-.57,12.06-.92a58.61,58.61,0,0,1,12.1,1.43c15.82,3.25,31.3,7.76,46.77,12.25,30.9,9.14,61.56,19,92.17,29.12,61.17,20.25,122.06,41.39,182.84,62.81q45.57,16.08,91.05,32.48l45.44,16.49,22.68,8.36c7.53,2.86,15.15,5.5,22.54,8.7-7.4-3.17-15-5.8-22.56-8.64l-22.71-8.28-45.48-16.36q-45.52-16.26-91.15-32.2c-60.84-21.25-121.79-42.17-183-62.27-30.61-10-61.28-19.91-92.16-29-15.45-4.47-30.94-9-46.67-12.18a58.21,58.21,0,0,0-11.81-1.4q-6,.36-12,.93c-8,.72-16,1.53-24,2.36-64,6.71-127.89,14.21-191.87,21.55L870.8,1377.59l-.48,0-.34-.35-42.58-43.48c-14.3-14.38-28.06-29.33-43.22-42.81l-89.12-82.8L516.81,1042.57l.94.13-397.09,209-24.81,13.06L89.64,1268c-2,1.11-4.14,2.16-6.26,3.13l-12.66,6-50.67,24-101.34,48Z"/><path class="cls-5" d="M-283.85,1464.53-87.76,1370l98.05-47.26c32.62-15.87,65.63-31,97.41-48.53l384.77-204.14.47-.25.41.34,185.78,153.38L772,1300.25l11.61,9.59c1,.81,2,1.57,2.88,2.42l2.75,2.59,5.48,5.17,21.94,20.68,43.88,41.36-.76-.29,775.43-26.13h-.06c64.18-7.19,128.35-14.37,192.62-20.64,8-.74,16.07-1.52,24.13-2.14,4-.36,8.06-.57,12.1-.81a71.44,71.44,0,0,1,12.17.93c16,2.44,31.72,6.35,47.39,10.3,31.31,8,62.34,17.11,93.3,26.38,61.89,18.67,123.43,38.52,184.83,58.75q46,15.19,92,30.8l45.87,15.74,22.88,8,11.42,4.09c3.77,1.43,7.65,2.66,11.28,4.4-3.64-1.73-7.52-2.94-11.3-4.36l-11.42-4.06-22.91-8-45.91-15.6q-46-15.46-92-30.52c-61.45-20.06-123.06-39.67-185-58.21-31-9.23-62-18.26-93.28-26.27-15.65-3.93-31.35-7.82-47.27-10.22a70.78,70.78,0,0,0-11.94-.91c-4,.24-8,.46-12,.82-8,.63-16.07,1.41-24.11,2.17-64.24,6.33-128.41,13.58-192.56,20.83h-.06l-775.41,26.73h-.44l-.32-.3-43.81-41.38-21.9-20.69-5.48-5.17-2.74-2.59c-.92-.85-1.92-1.61-2.88-2.42l-11.6-9.6L677.92,1225,492.33,1071.46l.89.09-385,203.74L84.17,1288c-4,2.07-8,4.36-12.09,6.25l-12.27,5.88-49.09,23.49-98.19,47Z"/></g></g></svg>