<svg xmlns="http://www.w3.org/2000/svg" viewBox="0 0 1135.78 90.06"><defs><style>.cls-1{fill:none;stroke:#000;stroke-miterlimit:10;stroke-width:11px;}</style></defs><title>worm</title><g id="Layer_2" data-name="Layer 2"><g id="Layer_1-2" data-name="Layer 1"><path class="cls-1" d="M1131.89,86.17l-71.25-71.25a32.18,32.18,0,0,0-45.5,0l-48.5,48.5a32.16,32.16,0,0,1-45.5,0l-48.5-48.5a32.18,32.18,0,0,0-45.5,0l-48.5,48.5a32.16,32.16,0,0,1-45.5,0l-48.5-48.5a32.18,32.18,0,0,0-45.5,0l-48.5,48.5a32.16,32.16,0,0,1-45.5,0l-48.5-48.5a32.18,32.18,0,0,0-45.5,0l-48.5,48.5a32.16,32.16,0,0,1-45.5,0l-48.5-48.5a32.18,32.18,0,0,0-45.5,0l-48.5,48.5a32.16,32.16,0,0,1-45.5,0l-48.5-48.5a32.18,32.18,0,0,0-45.5,0L3.89,86.17"/></g></g></svg>